<svg width="144" height="57" viewBox="0 0 144 57" fill="none" xmlns="http://www.w3.org/2000/svg">
<g clip-path="url(#clip0_316_16940)">
<path d="M111.243 44.5726V23.8577H106.208V44.5726H11.9091V11.851H15.5721V7.42432H7.42188V48.999H111.25V44.5726H111.243Z" fill="white"/>
<path d="M106.312 18.3784H111.347V22.5968H106.312V18.3784Z" fill="white"/>
<path d="M37.3398 18.3784H42.3748V22.5968H37.3398V18.3784Z" fill="white"/>
<path d="M111.243 44.5726V23.8577H106.208V44.5726H11.9091V11.851H15.5721V7.42432H7.42188V48.999H111.25V44.5726H111.243Z" fill="white"/>
<path d="M17.8023 7.42432V7.42649H17.7578V37.3416H20.0369V37.3419H35.1968V32.1276H23.4772V11.851H131.596V44.5726H113.434V48.998H136.083V7.42432H17.8023Z" fill="white"/>
<path d="M42.2444 23.8579V37.5065H37.2734V23.8579H42.2444Z" fill="white"/>
<path d="M55.5555 26.8047H65.4206C65.4206 27.8187 65.378 28.7406 65.2928 29.569C65.2077 30.3974 65.0398 31.167 64.7858 31.8773C64.4312 32.8748 63.9491 33.7576 63.3404 34.5272C62.7318 35.2965 62.0178 35.9384 61.1978 36.4547C60.3775 36.9701 59.477 37.3636 58.4973 37.6331C57.5163 37.9038 56.4846 38.0397 55.4032 38.0397C53.9152 38.0397 52.5584 37.7938 51.3328 37.3033C50.1071 36.814 49.054 36.1249 48.1759 35.2375C47.2965 34.35 46.6124 33.2839 46.1219 32.0417C45.6314 30.7996 45.3867 29.4263 45.3867 27.9206C45.3867 26.4339 45.6267 25.0675 46.1088 23.8253C46.5909 22.5832 47.2754 21.522 48.1628 20.6427C49.0503 19.7646 50.1199 19.0792 51.3704 18.5886C52.6221 18.0981 54.0165 17.8535 55.5555 17.8535C57.5492 17.8535 59.2995 18.285 60.8043 19.1466C62.3088 20.0095 63.5015 21.3449 64.3805 23.153L59.6635 25.1066C59.224 24.0582 58.653 23.3053 57.9511 22.8493C57.2502 22.393 56.4513 22.1652 55.5555 22.1652C54.811 22.1652 54.135 22.3047 53.5263 22.5835C52.9177 22.8624 52.3977 23.2596 51.9675 23.775C51.536 24.2916 51.1982 24.912 50.9523 25.6388C50.7077 26.3655 50.5849 27.1774 50.5849 28.0736C50.5849 28.8855 50.6899 29.6371 50.9016 30.3309C51.1133 31.0234 51.43 31.624 51.8531 32.131C52.2749 32.6379 52.7999 33.0315 53.425 33.3106C54.0501 33.5894 54.7784 33.729 55.6068 33.729C56.096 33.729 56.5701 33.6746 57.0261 33.5636C57.4824 33.4548 57.8924 33.2764 58.2564 33.0318C58.6191 32.7871 58.9194 32.4691 59.1569 32.0803C59.3931 31.6914 59.5541 31.2186 59.6381 30.661H55.5558V26.8047H55.5555Z" fill="white"/>
<path d="M73.5373 25.7646H80.7137V18.3862H85.6833V37.5065H80.7137V29.6199H73.5373V37.5065H68.5664V18.3862H73.5373V25.7646Z" fill="white"/>
<path d="M96.9438 22.595V37.5065H91.9729V22.595H87.8906V18.3862H101.026V22.595H96.9438Z" fill="white"/>
<path d="M123.631 22.595V37.5065H118.66V22.595H114.578V18.3862H127.714V22.595H123.631Z" fill="white"/>
</g>
<defs>
<clipPath id="clip0_316_16940">
<rect width="128.663" height="41.5747" fill="white" transform="translate(7.42578 7.42383)"/>
</clipPath>
</defs>
</svg>
